<?xml version="1.0" encoding="utf-8"?>
<!-- Generator: Adobe Illustrator 16.0.0, SVG Export Plug-In . SVG Version: 6.00 Build 0)  -->
<!DOCTYPE svg PUBLIC "-//W3C//DTD SVG 1.1//EN" "http://www.w3.org/Graphics/SVG/1.1/DTD/svg11.dtd" [
	<!ENTITY ns_extend "http://ns.adobe.com/Extensibility/1.0/">
	<!ENTITY ns_ai "http://ns.adobe.com/AdobeIllustrator/10.0/">
	<!ENTITY ns_graphs "http://ns.adobe.com/Graphs/1.0/">
	<!ENTITY ns_vars "http://ns.adobe.com/Variables/1.0/">
	<!ENTITY ns_imrep "http://ns.adobe.com/ImageReplacement/1.0/">
	<!ENTITY ns_sfw "http://ns.adobe.com/SaveForWeb/1.0/">
	<!ENTITY ns_custom "http://ns.adobe.com/GenericCustomNamespace/1.0/">
	<!ENTITY ns_adobe_xpath "http://ns.adobe.com/XPath/1.0/">
]>
<svg version="1.1" id="Layer_1" xmlns:x="&ns_extend;" xmlns:i="&ns_ai;" xmlns:graph="&ns_graphs;"
	 xmlns="http://www.w3.org/2000/svg" xmlns:xlink="http://www.w3.org/1999/xlink" x="0px" y="0px" width="333px" height="126px"
	 viewBox="0 0 333 126" style="enable-background:new 0 0 333 126;" xml:space="preserve">
<metadata>
	<sfw  xmlns="&ns_sfw;">
		<slices></slices>
		<sliceSourceBounds  width="504.847" height="295.958" y="-283.38" x="2.626" bottomLeftOrigin="true"></sliceSourceBounds>
	</sfw>
</metadata>
<path style="fill:#2D5CAA;" d="M-22.772-162.578c-18.127,0-37.285,10.783-40.725,30.919c-5.028-0.551-10.222-0.979-15.554-1.277
	v-28.53h-16.18v28.038c-0.583-0.003-1.159-0.012-1.744-0.012c-11.723,0-22.986,0.632-33.523,1.784v-29.81h-16.181v32.082
	c-9.107,1.589-17.424,3.601-24.695,5.959h24.695v34.312h16.181v-34.312h35.267v34.312h16.18v-34.312h15.05
	c0.845,20.976,17.555,35.479,41.229,35.479c25.068,0,41.263-14.583,41.263-37.15C18.491-147.866,2.296-162.578-22.772-162.578
	 M-22.772-100.467c-11.137,0-24.045-6.079-24.86-22.958h25.056c-7.306-2.369-15.669-4.388-24.828-5.98
	c1.899-14.444,13.298-20.994,24.632-20.994c7.499,0,24.937,2.465,24.937,25.303C2.165-106.938-10.715-100.467-22.772-100.467"/>
<path style="fill:#2D5CAA;" d="M76.269-160.901c0,0-20.326,28.637-21.466,30.246c-1.143-1.609-21.466-30.246-21.466-30.246h-0.381
	H14.47c0,0,31.758,41.338,32.063,41.735v30.047H62.8v-29.692c0.305-0.395,32.336-42.09,32.336-42.09H76.269z"/>
<path style="fill:#2D5CAA;" d="M126.44-160.901h-14.122L79.428-89.119h17.142c0,0,8.026-18.778,8.395-19.635h29.716
	c0.374,0.838,8.731,19.635,8.731,19.635H161.5L126.44-160.901z M110.181-120.96c0.702-1.646,3.69-8.633,3.69-8.633
	s4.59-10.736,5.659-13.232c1.155,2.596,8.931,20.084,9.723,21.865H110.181z"/>
<polygon style="fill:#808080;" points="-83.357,-50.333 -93.501,-50.333 -93.501,-40.888 -82.152,-40.888 -82.152,-38.05 
	-96.921,-38.05 -96.921,-64.247 -82.735,-64.247 -82.735,-61.409 -93.501,-61.409 -93.501,-53.13 -83.357,-53.13 "/>
<path style="fill:#808080;" d="M-77.024-56.862l4.081,11.116c0.467,1.243,0.933,2.72,1.244,3.847h0.078
	c0.349-1.127,0.738-2.565,1.205-3.925l3.731-11.038h3.615l-5.131,13.409c-2.449,6.452-4.12,9.716-6.452,11.776
	c-1.71,1.438-3.342,2.021-4.197,2.177l-0.856-2.838c0.856-0.272,1.983-0.816,2.993-1.671c0.933-0.738,2.06-2.06,2.877-3.809
	c0.155-0.349,0.271-0.622,0.271-0.815c0-0.195-0.077-0.467-0.271-0.895l-6.919-17.334H-77.024z"/>
<path style="fill:#808080;" d="M-59.03-46.834c0.077,4.625,2.992,6.53,6.451,6.53c2.449,0,3.965-0.428,5.208-0.972l0.622,2.449
	c-1.204,0.544-3.303,1.204-6.296,1.204c-5.791,0-9.251-3.848-9.251-9.522c0-5.675,3.343-10.106,8.823-10.106
	c6.18,0,7.774,5.364,7.774,8.823c0,0.7-0.039,1.205-0.117,1.594H-59.03z M-49.003-49.283c0.039-2.138-0.894-5.519-4.742-5.519
	c-3.498,0-4.975,3.148-5.247,5.519H-49.003z"/>
<path style="fill:#808080;" d="M-32.876-38.051v-16.207h-2.604v-2.604h2.604v-0.894c0-2.643,0.622-5.053,2.176-6.568
	c1.283-1.244,2.993-1.749,4.587-1.749c1.243,0,2.254,0.271,2.915,0.543l-0.467,2.644c-0.505-0.234-1.166-0.428-2.176-0.428
	c-2.915,0-3.654,2.526-3.654,5.441v1.011h4.548v2.604h-4.548v16.207H-32.876z"/>
<path style="fill:#808080;" d="M-5.826-47.611c0,6.957-4.859,9.989-9.367,9.989c-5.053,0-9.017-3.732-9.017-9.678
	c0-6.258,4.159-9.95,9.328-9.95C-9.48-57.25-5.826-53.325-5.826-47.611 M-20.712-47.417c0,4.12,2.332,7.229,5.675,7.229
	c3.264,0,5.713-3.07,5.713-7.307c0-3.187-1.594-7.19-5.636-7.19C-18.963-54.686-20.712-50.955-20.712-47.417"/>
<path style="fill:#808080;" d="M-2.412-50.993c0-2.215-0.039-4.12-0.155-5.869h2.992l0.156,3.732h0.116
	c0.856-2.527,2.955-4.121,5.248-4.121c0.35,0,0.621,0.04,0.932,0.078v3.226c-0.35-0.078-0.699-0.078-1.165-0.078
	c-2.41,0-4.121,1.788-4.586,4.354c-0.077,0.466-0.117,1.049-0.117,1.593v10.027h-3.42V-50.993z"/>
<path style="fill:#808080;" d="M34.743-65.645v22.736c0,1.672,0.077,3.576,0.155,4.858h-3.031l-0.156-3.264h-0.116
	c-1.011,2.098-3.265,3.692-6.336,3.692c-4.547,0-8.082-3.848-8.082-9.561c-0.04-6.257,3.886-10.067,8.433-10.067
	c2.915,0,4.819,1.361,5.675,2.838h0.077v-11.232H34.743z M31.361-49.205c0-0.428-0.039-1.01-0.155-1.438
	c-0.505-2.138-2.371-3.926-4.936-3.926c-3.537,0-5.637,3.11-5.637,7.229c0,3.809,1.905,6.957,5.559,6.957
	c2.293,0,4.392-1.554,5.014-4.08c0.116-0.467,0.155-0.933,0.155-1.477V-49.205z"/>
<path style="fill:#808080;" d="M41.438-46.834c0.077,4.625,2.992,6.53,6.451,6.53c2.448,0,3.965-0.428,5.208-0.972l0.622,2.449
	c-1.205,0.544-3.304,1.204-6.297,1.204c-5.79,0-9.25-3.848-9.25-9.522c0-5.675,3.343-10.106,8.823-10.106
	c6.18,0,7.773,5.364,7.773,8.823c0,0.7-0.039,1.205-0.117,1.594H41.438z M51.466-49.283c0.039-2.138-0.896-5.519-4.742-5.519
	c-3.498,0-4.975,3.148-5.247,5.519H51.466z"/>
<path style="fill:#808080;" d="M62.28-61.371v4.509h4.896v2.604H62.28v10.144c0,2.332,0.66,3.653,2.564,3.653
	c0.934,0,1.478-0.077,1.982-0.233l0.156,2.604c-0.661,0.234-1.711,0.467-3.032,0.467c-1.594,0-2.876-0.544-3.692-1.438
	c-0.933-1.05-1.321-2.721-1.321-4.937v-10.26h-2.915v-2.604h2.915v-3.498L62.28-61.371z"/>
<path style="fill:#808080;" d="M84.238-42.559c0,1.632,0.078,3.225,0.272,4.508h-3.07l-0.272-2.37h-0.116
	c-1.05,1.477-3.07,2.798-5.753,2.798c-3.809,0-5.752-2.682-5.752-5.402c0-4.548,4.042-7.035,11.31-6.997v-0.388
	c0-1.516-0.427-4.353-4.274-4.314c-1.788,0-3.615,0.505-4.937,1.399l-0.777-2.293c1.555-0.972,3.848-1.633,6.219-1.633
	c5.752,0,7.151,3.926,7.151,7.657V-42.559z M80.935-47.651c-3.732-0.077-7.968,0.584-7.968,4.236c0,2.255,1.478,3.266,3.188,3.266
	c2.487,0,4.081-1.555,4.625-3.149c0.117-0.388,0.155-0.777,0.155-1.088V-47.651z"/>
<path style="fill:#808080;" d="M93.564-62.148c0,1.166-0.815,2.099-2.177,2.099c-1.243,0-2.06-0.933-2.06-2.099
	s0.854-2.137,2.138-2.137C92.71-64.285,93.564-63.352,93.564-62.148 M89.756-56.862h3.42v18.811h-3.42V-56.862z"/>
<rect x="98.849" y="-65.646" style="fill:#808080;" width="3.422" height="27.595"/>
<path style="fill:#FFFFFF;" d="M149.201,0.302c-18.127,0-37.285,10.783-40.725,30.919c-5.028-0.551-10.222-0.979-15.554-1.277V1.413
	h-16.18v28.038c-0.583-0.003-1.159-0.012-1.744-0.012c-11.723,0-22.986,0.632-33.523,1.784V1.413H25.293v32.082
	c-9.107,1.59-17.424,3.602-24.695,5.959h24.695v34.313h16.181V39.454h35.267v34.313h16.18V39.454h15.05
	c0.845,20.977,17.555,35.479,41.229,35.479c25.068,0,41.263-14.582,41.263-37.15C190.464,15.014,174.269,0.302,149.201,0.302
	 M149.201,62.412c-11.137,0-24.045-6.078-24.86-22.958h25.056c-7.306-2.368-15.669-4.388-24.828-5.979
	c1.899-14.444,13.298-20.994,24.632-20.994c7.499,0,24.937,2.465,24.937,25.303C174.138,55.941,161.258,62.412,149.201,62.412"/>
<path style="fill:#FFFFFF;" d="M248.241,1.979c0,0-20.326,28.637-21.466,30.246c-1.143-1.609-21.466-30.246-21.466-30.246h-0.381
	h-18.486c0,0,31.758,41.338,32.063,41.735v30.047h16.268V44.068c0.305-0.395,32.336-42.09,32.336-42.09H248.241z"/>
<path style="fill:#FFFFFF;" d="M298.413,1.979h-14.122L251.4,73.76h17.142c0,0,8.026-18.777,8.395-19.635h29.716
	c0.374,0.838,8.731,19.635,8.731,19.635h18.089L298.413,1.979z M282.153,41.919c0.702-1.646,3.69-8.633,3.69-8.633
	s4.59-10.736,5.659-13.232c1.155,2.597,8.931,20.084,9.723,21.865H282.153z"/>
<polygon style="fill:#FFFFFF;" points="88.615,112.547 78.471,112.547 78.471,121.992 89.82,121.992 89.82,124.829 75.051,124.829 
	75.051,98.633 89.237,98.633 89.237,101.47 78.471,101.47 78.471,109.749 88.615,109.749 "/>
<path style="fill:#FFFFFF;" d="M94.948,106.018l4.081,11.116c0.467,1.243,0.933,2.72,1.244,3.847h0.078
	c0.349-1.127,0.738-2.564,1.205-3.925l3.731-11.038h3.615l-5.131,13.409c-2.449,6.452-4.12,9.716-6.452,11.776
	c-1.71,1.438-3.342,2.021-4.197,2.177l-0.856-2.838c0.856-0.272,1.983-0.816,2.993-1.671c0.933-0.738,2.06-2.061,2.877-3.81
	c0.155-0.349,0.271-0.622,0.271-0.815c0-0.194-0.077-0.467-0.271-0.895l-6.919-17.334H94.948z"/>
<path style="fill:#FFFFFF;" d="M112.943,116.045c0.077,4.625,2.992,6.53,6.451,6.53c2.449,0,3.965-0.428,5.208-0.972l0.622,2.448
	c-1.204,0.544-3.303,1.204-6.296,1.204c-5.791,0-9.251-3.848-9.251-9.521c0-5.675,3.343-10.106,8.823-10.106
	c6.18,0,7.774,5.364,7.774,8.823c0,0.7-0.039,1.205-0.117,1.594H112.943z M122.97,113.596c0.039-2.138-0.894-5.519-4.742-5.519
	c-3.498,0-4.975,3.148-5.247,5.519H122.97z"/>
<path style="fill:#FFFFFF;" d="M139.097,124.829v-16.207h-2.604v-2.604h2.604v-0.894c0-2.644,0.622-5.054,2.176-6.568
	c1.283-1.244,2.993-1.749,4.587-1.749c1.243,0,2.254,0.271,2.915,0.543l-0.467,2.644c-0.505-0.233-1.166-0.428-2.176-0.428
	c-2.915,0-3.654,2.526-3.654,5.441v1.011h4.548v2.604h-4.548v16.207H139.097z"/>
<path style="fill:#FFFFFF;" d="M166.146,115.268c0,6.957-4.859,9.988-9.367,9.988c-5.053,0-9.017-3.73-9.017-9.677
	c0-6.258,4.159-9.951,9.328-9.951C162.493,105.628,166.146,109.554,166.146,115.268 M151.261,115.462
	c0,4.12,2.332,7.229,5.675,7.229c3.264,0,5.713-3.07,5.713-7.308c0-3.187-1.594-7.189-5.636-7.189
	C153.01,108.194,151.261,111.925,151.261,115.462"/>
<path style="fill:#FFFFFF;" d="M169.561,111.886c0-2.215-0.039-4.119-0.155-5.868h2.992l0.156,3.731h0.116
	c0.856-2.527,2.955-4.121,5.248-4.121c0.35,0,0.621,0.04,0.932,0.078v3.227c-0.35-0.078-0.699-0.078-1.165-0.078
	c-2.41,0-4.121,1.788-4.586,4.354c-0.077,0.466-0.117,1.049-0.117,1.593v10.027h-3.42V111.886z"/>
<path style="fill:#FFFFFF;" d="M206.716,97.234v22.736c0,1.672,0.077,3.575,0.155,4.857h-3.031l-0.156-3.264h-0.116
	c-1.011,2.098-3.265,3.692-6.336,3.692c-4.547,0-8.082-3.849-8.082-9.562c-0.04-6.257,3.886-10.067,8.433-10.067
	c2.915,0,4.819,1.361,5.675,2.839h0.077V97.234H206.716z M203.334,113.675c0-0.429-0.039-1.011-0.155-1.438
	c-0.505-2.138-2.371-3.926-4.936-3.926c-3.537,0-5.637,3.109-5.637,7.229c0,3.81,1.905,6.957,5.559,6.957
	c2.293,0,4.392-1.554,5.014-4.08c0.116-0.467,0.155-0.933,0.155-1.477V113.675z"/>
<path style="fill:#FFFFFF;" d="M213.411,116.045c0.077,4.625,2.992,6.53,6.451,6.53c2.448,0,3.965-0.428,5.208-0.972l0.622,2.448
	c-1.205,0.544-3.304,1.204-6.297,1.204c-5.79,0-9.25-3.848-9.25-9.521c0-5.675,3.343-10.106,8.823-10.106
	c6.18,0,7.773,5.364,7.773,8.823c0,0.7-0.039,1.205-0.117,1.594H213.411z M223.438,113.596c0.039-2.138-0.896-5.519-4.742-5.519
	c-3.498,0-4.975,3.148-5.247,5.519H223.438z"/>
<path style="fill:#FFFFFF;" d="M234.253,101.509v4.509h4.896v2.604h-4.896v10.144c0,2.332,0.66,3.653,2.564,3.653
	c0.934,0,1.478-0.077,1.982-0.233l0.156,2.604c-0.661,0.233-1.711,0.467-3.032,0.467c-1.594,0-2.876-0.544-3.692-1.438
	c-0.933-1.05-1.321-2.721-1.321-4.936v-10.261h-2.915v-2.604h2.915v-3.498L234.253,101.509z"/>
<path style="fill:#FFFFFF;" d="M256.211,120.32c0,1.632,0.078,3.226,0.272,4.508h-3.07l-0.272-2.37h-0.116
	c-1.05,1.478-3.07,2.799-5.753,2.799c-3.809,0-5.752-2.683-5.752-5.403c0-4.547,4.042-7.034,11.31-6.996v-0.388
	c0-1.517-0.427-4.354-4.274-4.314c-1.788,0-3.615,0.505-4.937,1.399l-0.777-2.293c1.555-0.972,3.848-1.633,6.219-1.633
	c5.752,0,7.151,3.926,7.151,7.656V120.32z M252.907,115.229c-3.732-0.077-7.968,0.583-7.968,4.236c0,2.255,1.478,3.265,3.188,3.265
	c2.487,0,4.081-1.554,4.625-3.147c0.117-0.389,0.155-0.777,0.155-1.089V115.229z"/>
<path style="fill:#FFFFFF;" d="M265.537,100.731c0,1.166-0.815,2.099-2.177,2.099c-1.243,0-2.06-0.933-2.06-2.099
	s0.854-2.138,2.138-2.138C264.683,98.594,265.537,99.527,265.537,100.731 M261.729,106.018h3.42v18.811h-3.42V106.018z"/>
<rect x="270.821" y="97.234" style="fill:#FFFFFF;" width="3.422" height="27.595"/>
</svg>
